<svg xmlns="http://www.w3.org/2000/svg" xmlns:xlink="http://www.w3.org/1999/xlink" width="30" height="30" viewBox="0 0 30 30"><defs><path id="72m8a" d="M1270 4604.98c0 2.04-.4 3.99-1.2 5.85a14.73 14.73 0 0 1-7.99 7.97 14.74 14.74 0 0 1-11.66 0 14.78 14.78 0 0 1-7.97-7.97 14.7 14.7 0 0 1-1.18-5.85c0-2.03.39-3.97 1.18-5.82a14.75 14.75 0 0 1 7.97-7.96 14.73 14.73 0 0 1 11.66 0 14.7 14.7 0 0 1 8 7.96c.79 1.86 1.19 3.79 1.19 5.82zm-1.82 0a13.2 13.2 0 0 0-24.6-6.6 12.9 12.9 0 0 0-1.76 6.6 13.34 13.34 0 0 0 3.84 9.35 13.4 13.4 0 0 0 9.32 3.86 13.17 13.17 0 0 0 13.2-13.21zm-7.66 4.5c.35.36.38.9 0 1.28a.93.93 0 0 1-1.26 0l-4.9-4.9a.86.86 0 0 1-.25-.75c0-.04-.04-.11-.04-.13v-8.63c0-.5.43-.92.9-.92.51 0 .96.41.96.92v8.5z"/></defs><g><g transform="translate(-1240 -4590)"><use xlink:href="#72m8a"/></g></g></svg>