<svg xmlns="http://www.w3.org/2000/svg" xmlns:xlink="http://www.w3.org/1999/xlink" width="30" height="30" viewBox="0 0 30 30"><defs><path id="xnx8a" d="M973.2 4612.07c.64.64.98 1.39.98 2.17s-.33 1.54-.96 2.2l-.82.81c-.4.39-.78.75-1.11 1.15l-.03.03a4.78 4.78 0 0 1-4.06 1.56 15.49 15.49 0 0 1-5.58-1.65 29.83 29.83 0 0 1-9.93-7.77 27.26 27.26 0 0 1-4.85-8.08 11.09 11.09 0 0 1-.81-4.7c.1-1.14.56-2.13 1.37-2.94l2.16-2.17.01-.01a3.1 3.1 0 0 1 2.16-.94 3 3 0 0 1 2.12.94c.41.38.81.78 1.2 1.17l.58.6 1.73 1.73c1.33 1.33 1.33 3.06 0 4.39l-.53.53c-.47.48-.95.97-1.47 1.45.39.85.92 1.7 1.71 2.7 1.64 2 3.34 3.55 5.22 4.74.18.12.4.22.63.34l.49.25 2-2a3.06 3.06 0 0 1 2.17-.97c.78 0 1.53.34 2.14.98zm-1.21 1.2l-3.5-3.49-.01-.01c-.2-.22-.52-.46-.91-.46-.4 0-.75.26-.96.47l-2.17 2.17c-.1.1-.44.43-.96.43-.21 0-.42-.05-.63-.16-.03 0-.05-.03-.08-.04-.18-.11-.4-.22-.63-.34-.25-.12-.52-.26-.78-.42a23.26 23.26 0 0 1-5.63-5.12 13.87 13.87 0 0 1-2.05-3.34l-.02-.06c-.11-.36-.22-.89.33-1.43 0-.02.02-.02.03-.03.55-.5 1.06-1 1.6-1.55l.54-.54c.67-.68.67-1.3 0-1.97l-1.73-1.73-.6-.61c-.4-.4-.76-.77-1.15-1.13 0 0 0-.02-.02-.02-.2-.2-.52-.45-.92-.45-.32 0-.65.16-.97.45l-2.16 2.16a2.9 2.9 0 0 0-.87 1.88c-.1 1.16.12 2.4.7 3.97a25.7 25.7 0 0 0 4.57 7.59 28.16 28.16 0 0 0 9.36 7.32 13.77 13.77 0 0 0 5.24 1.49c.99 0 1.74-.33 2.38-1.01.4-.46.82-.87 1.23-1.27.27-.26.52-.5.77-.77.65-.67.65-1.33 0-1.98zm-10.47-17.12a.86.86 0 0 1 1-.7 9.78 9.78 0 0 1 5.29 2.74 9.76 9.76 0 0 1 2.74 5.3.86.86 0 0 1-.7.98l-.15.01a.85.85 0 0 1-.84-.7 8.07 8.07 0 0 0-2.27-4.38 8.04 8.04 0 0 0-4.38-2.26.85.85 0 0 1-.69-1zm13.77 8.06l-.15.01a.85.85 0 0 1-.84-.7c-.5-2.96-1.9-5.65-4.04-7.79a14.41 14.41 0 0 0-7.8-4.03.85.85 0 1 1 .28-1.68 16.1 16.1 0 0 1 8.73 4.5c2.4 2.4 3.95 5.4 4.52 8.71.08.47-.24.9-.7.98z"/></defs><g><g transform="translate(-946 -4590)"><use xlink:href="#xnx8a"/></g></g></svg>