<svg xmlns="http://www.w3.org/2000/svg" xmlns:xlink="http://www.w3.org/1999/xlink" width="60" height="38" viewBox="0 0 60 38"><defs><path id="ta5ha" d="M1137 4326v10.04c0 .52-.42.94-.94.94h-3.07v.06a5.96 5.96 0 0 1-11.9 0v-.06h-21.17v.06a5.96 5.96 0 0 1-11.9 0v-.06h-5.07a1.94 1.94 0 0 1-1.94-1.94v-2.07h-3.07a.94.94 0 0 1 0-1.88h9.02a.94.94 0 0 1 0 1.88h-4.07v2.07c0 .03.03.06.06.06h5.4a5.96 5.96 0 0 1 11.25 0h19.49V4328a.94.94 0 1 1 1.88 0v7.09h.45a5.96 5.96 0 0 1 11.24 0h2.46v-4.14h-1.06a2.95 2.95 0 0 1-2.95-2.95v-2c0-.52.42-.94.94-.94h2.92a3.07 3.07 0 0 0-2.92-2.14h-11.08v1.07a.94.94 0 1 1-1.88 0v-17.06a.06.06 0 0 0-.07-.06h-36.07a.06.06 0 0 0-.06.06V4324a.94.94 0 1 1-1.88 0v-17.06c0-1.07.87-1.94 1.94-1.94h36.08c1.07 0 1.94.87 1.94 1.94v2.07h7.07a3.95 3.95 0 0 1 3.95 3.95v1c0 .46-.32.84-.74.93l1.55 6.22a4.96 4.96 0 0 1 4.2 4.9zm-16.03-12.97h9.14v-.07c0-1.14-.93-2.07-2.07-2.07h-7.07zm0 8.02h9.88l-1.54-6.14h-8.34zm-22.93 16a4.08 4.08 0 1 0-8.15 0 4.08 4.08 0 0 0 8.15 0zm33.07 0a4.08 4.08 0 1 0-8.15 0 4.08 4.08 0 0 0 8.15 0zm4.01-7.97v-2.13H1133v1.06c0 .6.48 1.07 1.07 1.07zm-39.2 7.96a1.94 1.94 0 1 1-3.9 0 1.94 1.94 0 0 1 3.9 0zm33.06 0a1.94 1.94 0 1 1-3.89 0 1.94 1.94 0 0 1 3.9 0zm-12.02-5.01c0 .52-.42.94-.94.94h-14.03a.94.94 0 0 1 0-1.88h14.03c.52 0 .94.42.94.94zm-24.05-4.02c0 .52-.42.94-.94.94h-12.03a.94.94 0 0 1 0-1.88h12.03c.52 0 .94.42.94.94zm16.76-12.37l-9.02 9.03a.94.94 0 0 1-1.33 0l-5-5.02a.94.94 0 0 1 1.32-1.33l4.35 4.35 8.35-8.36a.94.94 0 1 1 1.33 1.33z"/></defs><g><g transform="translate(-1077 -4305)"><use xlink:href="#ta5ha"/></g></g></svg>