<svg xmlns="http://www.w3.org/2000/svg" xmlns:xlink="http://www.w3.org/1999/xlink" width="60" height="60" viewBox="0 0 60 60"><defs><path id="pvy6a" d="M811 4338v-6c0-.6.4-1 1-1s1 .4 1 1v6c0 .6-.4 1-1 1s-1-.4-1-1zm6 0v-6c0-.6.4-1 1-1s1 .4 1 1v6c0 .6-.4 1-1 1s-1-.4-1-1zm28-14c0 3.78-.71 7.4-2 10.74v.06l-.1.2c-1.13 2.9-2.7 5.6-4.69 8h.09l-1.6 1.7a29.57 29.57 0 0 1-16.7 8.89v.01l-.2.02a30.53 30.53 0 0 1-9.6 0l-.2-.02v-.01a29.57 29.57 0 0 1-16.7-8.89l-1.6-1.7h.09a29.25 29.25 0 0 1-4.69-8l-.1-.2v-.06a29.68 29.68 0 0 1-1.14-3.61l-.06-.13c-.24-.97-.42-2-.53-3a30.09 30.09 0 0 1 29.73-34c16.5 0 30 13.5 30 30zm-57.45 5.51l6.9-8.65a21.12 21.12 0 0 1-1.45-2.36c-.6 1.1-1.5 2.6-3.1 4.6-1.2 1.4-2.3 2.8-2.7 4.2a17.11 17.11 0 0 0 .35 2.21zm1.38 1.36c.24.06.5.1.77.12l8.54-4.8c-.52-.93-1.28-1.9-2.04-2.9l-.2-.3-.34-.45zM803 4335h2.3l.23-.01c.08-.04.17-.07.27-.09.2-.1.4-.1.7-.7l.08-.18.03-.07.03-.08c.16-.51.12-1.01-.08-1.53a8.53 8.53 0 0 0-1.36-2.04 4.23 4.23 0 0 1-.1-.23l-.3-.37-.2-.2c-1-1.3-1.6-2.3-2.1-3-.4.8-1.1 1.8-2.1 3-1.7 2-2.5 3.4-1.8 4.7.3.7 1.3.8 1.7.8h.7v-2c0-.6.4-1 1-1s1 .4 1 1zm-4 2v6h6v-6zm-.25-8.74l-4.87 2.74h2.93a12.96 12.96 0 0 1 1.94-2.74zm-4.27 14.74H797v-7.37a2.67 2.67 0 0 1-.3-.53 4.1 4.1 0 0 1-.44-2.1H789v1.36a28.15 28.15 0 0 0 5.48 8.64zm23.52 8c0-1.7-1.3-3-3-3s-3 1.3-3 3v.8c2 .2 4 .2 6 0zm15.47-6h-36.94a27.96 27.96 0 0 0 13.47 6.55v-.55c0-2.8 2.2-5 5-5s5 2.2 5 5v.55c5.1-.93 9.72-3.25 13.47-6.55zm-25.27-9.9a3.4 3.4 0 0 1-1.2 1.45v6.45h16v-6.38c-.63-.35-1-.88-1.3-1.42-1.13-2.26 0-4.21 1.3-5.93V4326h-16v3.3c.88 1.15 1.67 2.42 1.7 3.8a3.7 3.7 0 0 1-.5 2zm6.8-24.1l-7.26 13H814v-2c0-.6.4-1 1-1s1 .4 1 1v2h6.26zm0-2c1.7 0 3-1.3 3-3s-1.3-3-3-3-3 1.3-3 3 1.3 3 3 3zm16.5 25.2c.12-.24.2-.48.22-.72.02-.34-.06-.7-.22-1.08l-.14-.4c-.42-.82-1.05-1.7-1.76-2.5-.1-.1-.2-.2-.2-.3l-.23-.3c-.8-.96-1.34-1.82-1.67-2.4-.4.8-1.1 1.8-2 3l-.2.2c-1.5 1.9-2.4 3.2-1.7 4.5.18.37.33.59.58.7h.02c.06.01.11.03.17.06a2 2 0 0 0 .43.04h2.2v-2c0-.6.4-1 1-1s1 .4 1 1v2h.8c.4 0 1.4-.1 1.7-.8zm-6.5 2.8v6h6v-6zm16-4h-7.3c.1.7-.1 1.5-.4 2.1-.07.13-.13.22-.2.3l-.1.15v7.45h2.52c2.32-2.5 4.19-5.43 5.48-8.64zm1.8-5.7c-.4-1.4-1.5-2.8-2.7-4.2-1.6-2-2.6-3.5-3.1-4.6-.6 1.1-1.5 2.6-3 4.5l-.2.3c-1.3 1.7-2.6 3.3-2.7 4.8l.1.1c.6.8 1.4 1.8 1.9 2.8h2.9v-3c0-.6.4-1 1-1s1 .4 1 1v3h2c.98 0 1.77-.3 2.28-.68a27.68 27.68 0 0 0 .52-3.02zm.2-3.73a28.08 28.08 0 0 0-28-27.57 28.08 28.08 0 0 0-28 27.47c.42-.57.86-1.13 1.3-1.67 2.4-2.8 3.1-4.6 3.4-5.4.3-.5.5-1.1 1.3-1.2.7 0 1 .6 1.2 1.1.4.8 1.1 2.6 3.4 5.4l.2.3c1.01 1.33 2.02 2.62 2.6 3.96l.01.01c.52-.84.77-1.42.89-1.77.1-.4.4-1 1.1-1 .7 0 1 .6 1.2 1 .22.44.55 1.27 1.4 2.52V4325c0-.35.14-.63.37-.8l7.6-13.62A4.95 4.95 0 0 1 810 4306c0-2.46 1.7-4.45 4-4.9v-3.1c0-.6.4-1 1-1s1 .4 1 1v3.1c2.3.45 4 2.44 4 4.9 0 2.07-1.2 3.82-2.97 4.58l7.68 13.68a1 1 0 0 1 .29.74v1.67c.77-1.17 1.09-1.94 1.3-2.37.2-.4.5-1 1.2-1s1 .6 1.1 1c.12.36.39.98.95 1.87.58-1.39 1.61-2.7 2.65-4.07l.2-.3c2.2-2.9 3-4.6 3.4-5.4.2-.5.5-1.1 1.2-1.1s1 .6 1.2 1.1c.3.8 1.1 2.6 3.4 5.4.47.58.95 1.17 1.4 1.77z"/></defs><g><g transform="translate(-785 -4294)"><use xlink:href="#pvy6a"/></g></g></svg>