<svg xmlns="http://www.w3.org/2000/svg" xmlns:xlink="http://www.w3.org/1999/xlink" width="60" height="57" viewBox="0 0 60 57"><defs><path id="mrq0a" d="M1430 4352h-60l4.26-33.33h11.87c.6 0 1.09.48 1.09 1.07 0 .6-.49 1.08-1.1 1.08h-9.94l-3.7 29.03h55.1l-3.17-29.03h-9.93c-.6 0-1.09-.48-1.09-1.08 0-.6.49-1.07 1.1-1.07h11.88zm-42.24-38.75c-.56-2.61-.69-5.11-.38-7.44.94-7.07 5.4-10.81 12.89-10.81s11.94 3.74 12.88 10.8a21.8 21.8 0 0 1-.37 7.45c-2.75 12.86-9.4 20.58-11.38 22.64l-.02.02c.21.52 0 1.11-.5 1.37a11.86 11.86 0 0 0-1.71 1.03 1.1 1.1 0 0 1-1.53-.23 1.07 1.07 0 0 1 .24-1.5c.23-.17.46-.33.7-.48l.49-.28c-2.04-2.15-8.59-9.84-11.31-22.57zm2.13-.45a47.08 47.08 0 0 0 10.38 21.13c2-2.23 7.9-9.56 10.37-21.13.51-2.37.63-4.63.35-6.71-.8-6.02-4.3-8.94-10.72-8.94-6.42 0-9.92 2.92-10.72 8.94-.28 2.08-.16 4.34.34 6.71zm2.37-5.35c0-4.36 3.6-7.9 8-7.9a7.96 7.96 0 0 1 8.02 7.9c0 4.35-3.6 7.9-8.01 7.9a7.96 7.96 0 0 1-8.01-7.9zm2.18 0a5.8 5.8 0 0 0 5.83 5.75 5.8 5.8 0 0 0 5.83-5.75 5.8 5.8 0 0 0-5.83-5.75 5.8 5.8 0 0 0-5.83 5.75zm12.08 26.07a1.08 1.08 0 1 1 .27 2.13 25.54 25.54 0 0 0-2.29.37 1.07 1.07 0 0 1-.23-2.13c.7-.15 1.46-.27 2.25-.37zm4.44-.31l2.17-.1c.55-.03 1.11.44 1.14 1.03.03.6-.44 1.1-1.04 1.12l-2.18.1h-.05c-.58 0-1.06-.46-1.09-1.03-.02-.6.44-1.1 1.05-1.12zm-14.97 6.27c.36.48.27 1.15-.21 1.51-.6.45-1.22.88-1.85 1.28a1.1 1.1 0 0 1-1.5-.32c-.34-.5-.2-1.16.31-1.49.59-.37 1.16-.77 1.72-1.19a1.1 1.1 0 0 1 1.53.21zm22.87-7.36a1.1 1.1 0 0 1 1.53.2c.36.48.27 1.15-.21 1.51l-.15.1a6.04 6.04 0 0 1-2.5.95 1.08 1.08 0 0 1-.22-2.13c.61-.13 1.1-.31 1.46-.57zm-39.37 9.53a5.28 5.28 0 0 0 .02.68 1.08 1.08 0 0 1-1.1 1.19c-.54 0-1.02-.42-1.08-.97a6.79 6.79 0 0 1 .23-2.52c.15-.58.76-.92 1.33-.76.59.16.93.75.77 1.32-.1.35-.15.7-.17 1.06zm40.2-16.61c-.09.58-.62 1-1.24.92a4.31 4.31 0 0 0-1.71.13 1.09 1.09 0 0 1-1.34-.74c-.17-.58.16-1.17.74-1.33a6.5 6.5 0 0 1 2.6-.2c.6.08 1.02.63.94 1.22zm1.33 3.57v-.13c0-.25-.04-.5-.13-.75-.21-.55.07-1.17.64-1.38.56-.2 1.2.08 1.4.64a4.23 4.23 0 0 1 .07 2.8 1.09 1.09 0 0 1-1.36.7c-.58-.17-.9-.77-.72-1.34.06-.19.1-.36.1-.54zm-30.5 14.4c.25.53.02 1.17-.53 1.42-.68.32-1.38.61-2.07.88-.13.05-.27.07-.4.07a1.1 1.1 0 0 1-1.01-.69c-.22-.55.06-1.18.62-1.39a31 31 0 0 0 1.93-.81 1.1 1.1 0 0 1 1.45.51zm-10.35-5.56c-.3-.52-.1-1.18.43-1.46a4.9 4.9 0 0 1 2.77-.55c.6.08 1.01.62.94 1.2-.08.6-.61 1-1.23.93a1.8 1.8 0 0 0-.44 0 2.7 2.7 0 0 0-1 .3 1.1 1.1 0 0 1-1.47-.42zm-.05 7.68c.15-.58.74-.92 1.33-.77l.43.08c.44.05.88.04 1.32-.02.6-.07 1.14.35 1.22.94.08.58-.35 1.12-.95 1.2a8.2 8.2 0 0 1-1.86.01 5.51 5.51 0 0 1-.71-.13 1.08 1.08 0 0 1-.78-1.31z"/></defs><g><g transform="translate(-1370 -4295)"><use xlink:href="#mrq0a"/></g></g></svg>